<svg xmlns="http://www.w3.org/2000/svg" viewBox="0 0 1920 1080"><defs><style>.cls-1,.cls-3,.cls-4{fill:#fff;}.cls-2,.cls-5{fill:#405886;}.cls-3,.cls-4{stroke:#fff;}.cls-3,.cls-4,.cls-5{stroke-miterlimit:10;}.cls-3{stroke-width:9px;}.cls-4{stroke-width:8.95px;}.cls-5{stroke:#405886;stroke-width:8px;}</style></defs><g id="Capa_1" data-name="Capa 1"><path class="cls-1" d="M1680.4,447.9h0c-19.3,45-126.4,138.5-199.9,214.3,0,0-84.3-97.7-14.9-166.6l13.3-11.4c-4.7,4.4-8.8,7.5-13.3,11.4a126.5,126.5,0,1,1,11.8-193,126.5,126.5,0,0,1,215.2,89.1C1692.7,411.9,1688.7,430.9,1680.4,447.9Z"/><ellipse class="cls-2" cx="1391.8" cy="380.3" rx="121.9" ry="114.1"/><ellipse class="cls-2" cx="1478.2" cy="714.7" rx="86.2" ry="16.1"/><path class="cls-2" d="M485.6,669.8a71.8,71.8,0,0,1-4.5,26.3,54,54,0,0,1-12.4,19.1,53,53,0,0,1-18.9,11.6,71.3,71.3,0,0,1-47.1,0A51.4,51.4,0,0,1,384,715.2a54,54,0,0,1-12.4-19.1,71.8,71.8,0,0,1-4.5-26.3,69.9,69.9,0,0,1,4.6-26.1,53.1,53.1,0,0,1,12.6-19A51.1,51.1,0,0,1,403,613a65.2,65.2,0,0,1,23.3-4,65.9,65.9,0,0,1,23.3,4,51.9,51.9,0,0,1,18.9,11.7,52.9,52.9,0,0,1,12.5,19C484.1,651.2,485.6,659.9,485.6,669.8Zm-30.8,0c0-12.1-2.6-21.3-7.7-27.5s-12.1-9.2-20.8-9.2-15.6,3.1-20.8,9.2-7.7,15.4-7.7,27.5,2.5,21.5,7.7,27.7,12,9.2,20.8,9.2,15.6-3.1,20.8-9.2S454.8,682.1,454.8,669.8Z"/><path class="cls-2" d="M1321.1,668.5c0,9.9-1.4,18.6-4.4,26.2a53.3,53.3,0,0,1-12.5,19.1,51.5,51.5,0,0,1-18.8,11.7,71.3,71.3,0,0,1-47.1,0,50.7,50.7,0,0,1-18.8-11.7,54.3,54.3,0,0,1-12.3-19.1c-3-7.6-4.5-16.3-4.5-26.2s1.5-18.6,4.6-26.1a54.2,54.2,0,0,1,12.5-19.1,53.1,53.1,0,0,1,18.7-11.6,70.2,70.2,0,0,1,46.7,0,52.6,52.6,0,0,1,18.8,11.6,54.4,54.4,0,0,1,12.6,19.1Q1321.1,653.7,1321.1,668.5Zm-30.8,0c0-12.2-2.5-21.3-7.7-27.5s-12-9.2-20.8-9.2-15.5,3.1-20.7,9.2-7.8,15.3-7.8,27.5,2.6,21.5,7.7,27.6,12.1,9.3,20.8,9.3,15.7-3.1,20.8-9.3S1290.3,680.8,1290.3,668.5Z"/><path class="cls-1" d="M925.6,510.9a45.3,45.3,0,0,1-2.9,16.7,33.5,33.5,0,0,1-7.9,12.2,33.9,33.9,0,0,1-12,7.5,46.9,46.9,0,0,1-30.2,0,32.6,32.6,0,0,1-11.9-7.5,33.5,33.5,0,0,1-7.9-12.2,45.3,45.3,0,0,1-2.9-16.7,45.8,45.8,0,0,1,2.9-16.8,35.5,35.5,0,0,1,8-12.1,33.9,33.9,0,0,1,12-7.5,45.7,45.7,0,0,1,29.8,0,34.3,34.3,0,0,1,12.1,7.5,35.5,35.5,0,0,1,8,12.1A45.8,45.8,0,0,1,925.6,510.9Zm-19.7,0c0-7.8-1.6-13.7-4.9-17.6a16.5,16.5,0,0,0-13.3-5.9,16.8,16.8,0,0,0-13.3,5.9c-3.3,3.9-4.9,9.8-4.9,17.6s1.6,13.7,4.9,17.6,7.7,5.9,13.3,5.9,10-1.9,13.3-5.9S905.9,518.7,905.9,510.9Z"/><rect class="cls-2" x="241.6" y="600.5" width="34.1" height="136.64" rx="17" transform="translate(-299.8 218.9) rotate(-30)"/><rect class="cls-2" x="293.1" y="600.5" width="34.1" height="136.64" rx="17" transform="translate(244.2 1403.2) rotate(-150)"/><rect class="cls-1" x="217.6" y="470.9" width="22.8" height="80.09" rx="11.1" transform="translate(458 1021.9) rotate(180)"/><rect class="cls-1" x="235.2" y="453.2" width="21.8" height="57.16" rx="10.9" transform="translate(-235.7 727.9) rotate(-90)"/><rect class="cls-1" x="235.3" y="511.6" width="21.8" height="57.16" rx="10.9" transform="translate(-294 786.3) rotate(-90)"/><rect class="cls-1" x="231" y="488.8" width="17.6" height="44.42" rx="8.8" transform="translate(-271.2 750.8) rotate(-90)"/><rect class="cls-1" x="548" y="426.6" width="13.7" height="62.45" rx="6.6" transform="translate(1012.6 -97) rotate(90)"/><rect class="cls-1" x="516.4" y="471.4" width="21.8" height="80.09" rx="10.9" transform="translate(1054.5 1022.9) rotate(180)"/><rect class="cls-1" x="571.4" y="471.1" width="21.8" height="80.09" rx="10.9" transform="translate(1164.6 1022.3) rotate(180)"/><rect class="cls-1" x="543.6" y="460.5" width="22.3" height="101.28" rx="11" transform="translate(1309.1 501.8) rotate(136.6)"/><rect class="cls-1" x="678.5" y="471.5" width="21.8" height="80.09" rx="10.9" transform="translate(1378.8 1023) rotate(-180)"/><rect class="cls-1" x="733.5" y="471.5" width="21.8" height="80.09" rx="10.9" transform="translate(1488.8 1023) rotate(-180)"/><rect class="cls-1" x="705.8" y="460.9" width="22.3" height="101.28" rx="11" transform="matrix(-0.73, 0.69, -0.69, -0.73, 1589.4, 391.15)"/><rect class="cls-1" x="288.5" y="471.7" width="21.8" height="80.09" rx="10.9" transform="translate(598.9 1023.6) rotate(180)"/><rect class="cls-1" x="343.6" y="471.5" width="21.8" height="80.09" rx="10.9" transform="translate(708.9 1023) rotate(-180)"/><rect class="cls-1" x="315.8" y="460.9" width="22.3" height="101.28" rx="11" transform="translate(915.9 658.9) rotate(136.6)"/><rect class="cls-1" x="445.3" y="471.4" width="22.8" height="80.09" rx="11.1" transform="translate(913.5 1022.9) rotate(180)"/><rect class="cls-1" x="462.9" y="453.7" width="21.8" height="57.16" rx="10.9" transform="translate(-8.5 956.1) rotate(-90)"/><rect class="cls-1" x="463" y="512" width="21.8" height="57.16" rx="10.9" transform="translate(-66.7 1014.5) rotate(-90)"/><rect class="cls-1" x="458.7" y="489.2" width="17.6" height="44.42" rx="8.8" transform="translate(-43.9 978.9) rotate(-90)"/><rect class="cls-1" x="1003.1" y="471" width="22.8" height="80.09" rx="11.1" transform="translate(2029 1022) rotate(180)"/><rect class="cls-1" x="1020.7" y="453.3" width="21.8" height="57.16" rx="10.9" transform="translate(549.7 1513.4) rotate(-90)"/><rect class="cls-1" x="1020.8" y="511.6" width="21.8" height="57.16" rx="10.9" transform="translate(491.5 1571.8) rotate(-90)"/><rect class="cls-1" x="1016.5" y="488.8" width="17.6" height="44.42" rx="8.8" transform="translate(514.3 1536.3) rotate(-90)"/><rect class="cls-2" x="637.8" y="604.7" width="34.5" height="126.86" rx="17.3" transform="translate(1090.7 1496.2) rotate(-163.3)"/><rect class="cls-2" x="664.9" y="604.7" width="34.5" height="126.86" rx="17.3" transform="translate(-163.1 224) rotate(-16.7)"/><rect class="cls-2" x="511.1" y="605.4" width="34.1" height="125.32" rx="17" transform="translate(1056.2 1336.2) rotate(180)"/><rect class="cls-2" x="538.3" y="669.4" width="34.1" height="88.59" rx="17" transform="translate(-158.4 1269.1) rotate(-90)"/><rect class="cls-2" x="918.9" y="605.6" width="34.5" height="126.86" rx="17.3" transform="translate(1640.8 1578.8) rotate(-163.3)"/><rect class="cls-2" x="946" y="605.6" width="34.5" height="126.86" rx="17.3" transform="translate(-151.6 304.8) rotate(-16.7)"/><rect class="cls-2" x="1130.4" y="470.2" width="22.4" height="82.38" rx="11.2" transform="matrix(-0.96, -0.29, 0.29, -0.96, 2088.28, 1329.18)"/><rect class="cls-2" x="1148" y="470.2" width="22.4" height="82.38" rx="11.2" transform="translate(-98 354.5) rotate(-16.7)"/><rect class="cls-1" x="615.7" y="470.1" width="22.6" height="83.09" rx="11.3" transform="translate(1080.7 1181.8) rotate(-163.3)"/><rect class="cls-1" x="633.5" y="470.1" width="22.6" height="83.09" rx="11.3" transform="translate(-119.8 206.7) rotate(-16.7)"/><rect class="cls-2" x="1018.6" y="605.5" width="34.1" height="125.32" rx="17" transform="translate(2071.3 1336.4) rotate(-180)"/><rect class="cls-2" x="1045.8" y="669.5" width="34.1" height="88.59" rx="17" transform="translate(349.1 1776.7) rotate(-90)"/><rect class="cls-2" x="1134" y="607.2" width="33.6" height="123.6" rx="16.8" transform="translate(2301.7 1338.1) rotate(180)"/><rect class="cls-2" x="1134" y="579.5" width="33.6" height="87.37" rx="16.8" transform="translate(527.7 1774) rotate(-90)"/><rect class="cls-1" x="950.2" y="471.2" width="21.8" height="80.09" rx="10.9" transform="translate(1922.2 1022.4) rotate(180)"/><rect class="cls-1" x="950.2" y="453.2" width="21.8" height="56.61" rx="10.9" transform="translate(479.6 1442.6) rotate(-90)"/><path class="cls-3" d="M381.9,539.6a5.2,5.2,0,0,1,6.8-3.1,32.9,32.9,0,0,0,12.2,2.7c9.5,0,13.9-4.8,13.9-10.7s-3.7-9.6-13.3-13.1c-12.8-4.6-18.9-11.7-18.9-20.3,0-11.5,9.3-21,24.7-21a38,38,0,0,1,13.3,2.4,4.8,4.8,0,0,1,2.8,6.2h0a4.9,4.9,0,0,1-6.4,3,28.8,28.8,0,0,0-10-1.8c-7.7,0-12,4.4-12,9.7s4.3,8.6,13.6,12.1c12.4,4.8,18.8,11,18.8,21.6,0,12.6-9.8,21.5-26.8,21.5a43.7,43.7,0,0,1-15.5-2.8,5.2,5.2,0,0,1-3.2-6.4Z"/><path class="cls-4" d="M821.9,483.8c-6.3-5.8-15.8-8.8-29.1-8.8a132,132,0,0,0-16.3,1,3.9,3.9,0,0,0-3.5,3.9v62.8a4,4,0,0,0,3.6,4c3.9.3,8.3.5,13.3.5,14,0,25.1-3.6,31.7-10.3s10.4-16,10.4-27.6S828.3,489.6,821.9,483.8Zm-30.2,56a62.5,62.5,0,0,1-9.4-.5V483.2a56.7,56.7,0,0,1,10.9-.9c19.6,0,29.2,10.6,29.1,27.4C822.3,528.9,811.5,539.8,791.7,539.8Z"/><path class="cls-5" d="M743.1,715.7V620.4a9.4,9.4,0,0,1,2.8-6.9,9.6,9.6,0,0,1,7-2.8h32.5c7.4,0,13.8,1.6,19.3,4.9a31.8,31.8,0,0,1,12.4,12.8,39.4,39.4,0,0,1,1,32.8,31.4,31.4,0,0,1-9.1,12.2,26.9,26.9,0,0,1-13.9,6l25.1,30.3a10.1,10.1,0,0,1,2,6,9.3,9.3,0,0,1-2.8,6.8,9.9,9.9,0,0,1-7.1,2.9,8.9,8.9,0,0,1-7.6-3.6l-30.8-41.2H762.7v35.1a9.4,9.4,0,0,1-2.8,6.9,9.8,9.8,0,0,1-7,2.8,9.7,9.7,0,0,1-7-2.9A9.3,9.3,0,0,1,743.1,715.7Zm19.6-52.3h23c5,0,8.8-1.7,11.3-5.1a19.7,19.7,0,0,0,3.8-12.4,20.1,20.1,0,0,0-3.9-12.6q-3.9-5.1-11.7-5.1H762.7Z"/></g></svg>